<svg width="512" height="512" viewBox="0 0 512 512" fill="none" xmlns="http://www.w3.org/2000/svg">
<rect width="512" height="512" rx="80" fill="#33D878"/>
<rect x="40" y="157" width="140" height="140" rx="50" fill="#F3F9FF"/>
<rect x="40" y="333" width="140" height="140" rx="50" fill="#F3F9FF"/>
<rect x="201" y="333" width="140" height="140" rx="50" fill="#F3F9FF"/>
<rect x="362" y="157" width="110" height="316" rx="40" fill="#007AFF"/>
<rect x="42" y="33" width="430" height="110" rx="25" fill="#D4DAE0"/>
<path d="M393.84 315.112V304.936H438.768V315.112H393.84ZM393.84 336.52V326.248H438.768V336.52H393.84Z" fill="white"/>
<path d="M104.08 256.584V209.928H114.256V256.584H104.08ZM85.84 238.344V228.072H132.496V238.344H85.84Z" fill="#007AFF"/>
<path d="M111.688 430.408C109.512 430.408 107.752 429.768 106.408 428.488C105.064 427.144 104.392 425.416 104.392 423.304C104.392 421.256 105.064 419.592 106.408 418.312C107.752 416.968 109.512 416.296 111.688 416.296C113.864 416.296 115.624 416.968 116.968 418.312C118.312 419.592 118.984 421.256 118.984 423.304C118.984 425.416 118.312 427.144 116.968 428.488C115.624 429.768 113.864 430.408 111.688 430.408ZM111.688 394.216C109.512 394.216 107.752 393.544 106.408 392.2C105.064 390.856 104.392 389.16 104.392 387.112C104.392 385.064 105.064 383.368 106.408 382.024C107.752 380.68 109.512 380.008 111.688 380.008C113.864 380.008 115.624 380.68 116.968 382.024C118.312 383.368 118.984 385.064 118.984 387.112C118.984 389.16 118.312 390.856 116.968 392.2C115.624 393.544 113.864 394.216 111.688 394.216ZM88.84 410.152V400.36H134.536V410.152H88.84Z" fill="#007AFF"/>
<path d="M248.84 419.464L284.552 383.752L291.848 390.952L256.04 426.664L248.84 419.464ZM248.84 390.952L256.04 383.752L291.848 419.464L284.552 426.664L248.84 390.952Z" fill="#007AFF"/>
<path d="M83.944 126C74.8133 126 68.2 123.995 64.104 119.984C60.008 115.973 57.96 109.488 57.96 100.528V77.104C57.96 67.888 60.2213 61.1893 64.744 57.008C69.2667 52.7413 75.6667 50.608 83.944 50.608H121.32C127.208 50.608 131.688 50.9493 134.76 51.632C137.917 52.2293 139.496 52.8693 139.496 53.552L135.528 69.552C133.395 69.296 129.213 69.04 122.984 68.784C116.84 68.4427 109.075 68.272 99.688 68.272H93.16C89.1493 68.272 86.4187 69.04 84.968 70.576C83.6027 72.0267 82.92 74.288 82.92 77.36V99.248C82.92 102.149 83.5173 104.411 84.712 106.032C85.992 107.568 88.808 108.336 93.16 108.336H98.408C110.611 108.336 119.912 108.208 126.312 107.952C132.712 107.611 136.552 107.269 137.832 106.928L145.64 120.752C145.64 121.179 144.744 121.819 142.952 122.672C141.245 123.525 138.301 124.293 134.12 124.976C130.024 125.659 124.307 126 116.968 126H83.944ZM158.49 126L159.77 115.76V50.736H184.346V108.464H229.658L237.338 124.592C237.338 124.933 236.186 125.275 233.882 125.616C231.578 125.872 227.61 126 221.978 126H158.49Z" fill="white"/>
<rect x="201" y="157" width="140" height="140" rx="50" fill="#F3F9FF"/>
<path d="M253.744 238.152V227.784H286.384V238.152H253.744Z" fill="#007AFF"/>
</svg>
